<svg width="300" height="66" xmlns="http://www.w3.org/2000/svg" preserveAspectRatio="xMidYMid meet">
 <metadata>Created by potrace 1.10, written by Peter Selinger 2001-2011</metadata>

 <g>
  <title>background</title>
  <rect fill="none" id="canvas_background" height="602" width="802" y="-1" x="-1"/>
 </g>
 <g>
  <title>Layer 1</title>
  <g id="svg_1" fill="#000000" transform="translate(0,66) scale(0.10000000149011612,-0.10000000149011612) ">
   <path id="svg_2" d="m270,615c-7,-8 -9,-26 -6,-43l7,-28l-90,-13c-60,-8 -91,-17 -95,-27c-3,-8 1,-17 9,-20c23,-9 19,-21 -39,-148c-32,-71 -52,-125 -49,-137c19,-69 194,-71 220,-3c3,9 -17,67 -46,130c-69,154 -69,154 19,154l70,0l0,-68c0,-38 -3,-123 -6,-190c-7,-119 -7,-121 -33,-127c-35,-9 -51,-24 -51,-46c0,-18 9,-19 126,-19c124,0 125,0 122,22c-2,17 -15,27 -44,37l-41,14l-7,120c-3,66 -6,151 -6,189l0,68l75,0c93,0 93,1 24,-145c-27,-59 -49,-117 -47,-128c12,-81 204,-81 216,0c2,11 -20,69 -47,128c-51,107 -61,145 -40,145c6,0 9,8 7,18c-2,13 -23,20 -93,32l-90,16l3,33c5,47 -39,71 -68,36zm50,-25c0,-11 -6,-20 -14,-20c-18,0 -29,16 -21,30c11,18 35,11 35,-10zm-5,-180c0,-105 -3,-140 -12,-140c-10,0 -13,35 -13,140c0,105 3,140 13,140c9,0 12,-35 12,-140zm-45,103c0,-16 -12,-18 -82,-20c-45,-2 -78,0 -75,4c4,3 40,12 79,18c40,7 74,13 76,14c1,0 2,-7 2,-16zm214,-14c13,-5 -11,-7 -64,-4c-53,2 -86,8 -89,16c-4,13 116,4 153,-12zm-284,-268c0,-3 -38,-6 -85,-6c-66,0 -84,3 -80,13c3,7 22,51 42,98l38,85l43,-92c23,-50 42,-94 42,-98zm358,42c12,-23 22,-44 22,-45c0,-2 -40,-3 -90,-3c-49,0 -90,0 -90,1c0,0 13,28 30,61c16,34 36,79 45,100l16,38l23,-55c13,-30 33,-74 44,-97zm-233,-93c0,-66 -1,-70 -22,-70c-22,0 -23,4 -23,70c0,66 1,70 23,70c21,0 22,-4 22,-70zm-125,15c-22,-26 -83,-39 -123,-26c-19,7 -41,19 -47,27c-11,12 1,14 85,14c85,0 96,-2 85,-15zm378,3c-3,-7 -23,-19 -46,-26c-35,-12 -49,-12 -84,0c-75,24 -60,38 42,38c69,0 91,-3 88,-12zm-217,-119c66,-22 53,-29 -54,-29c-111,0 -134,9 -69,27c51,14 83,15 123,2z"/>
   <path id="svg_3" d="m2332,498c-17,-17 -15,-35 4,-42c17,-6 44,9 44,25c0,16 -36,29 -48,17z"/>
   <path id="svg_4" d="m1263,480c-24,-10 -39,-50 -29,-76c3,-8 -4,-29 -16,-45c-21,-28 -21,-32 -7,-57c21,-38 60,-50 101,-31c28,13 37,13 58,3c22,-12 26,-11 31,4c8,21 2,32 -17,32c-12,0 -11,8 6,40l20,40l-25,0c-14,0 -25,-6 -25,-12c0,-7 -4,-19 -9,-27c-8,-12 -13,-12 -35,2l-25,17l24,25c31,30 32,59 3,79c-25,18 -25,18 -55,6zm30,-63c-16,-17 -18,-17 -21,-3c-2,10 -1,24 2,33c5,12 9,13 21,3c14,-11 14,-15 -2,-33zm-2,-93l24,-26l-30,4c-22,2 -31,9 -33,26c-4,29 9,28 39,-4z"/>
   <path id="svg_5" d="m735,375c0,-104 0,-105 24,-105c24,0 24,1 18,75c-3,41 -4,75 -2,75c1,0 13,-31 25,-70c13,-39 28,-70 35,-70c8,0 25,33 38,73l26,72l-6,-77l-6,-78l27,0l26,0l0,105l0,105l-29,0c-27,0 -31,-5 -52,-67l-22,-67l-25,67c-21,59 -27,67 -51,67l-26,0l0,-105z"/>
   <path id="svg_6" d="m1060,401c0,-89 -13,-112 -49,-89c-16,10 -23,10 -33,0c-10,-10 -9,-16 5,-29c20,-20 81,-23 100,-5c7,8 14,52 17,107c5,93 5,95 -17,95c-22,0 -23,-4 -23,-79z"/>
   <path id="svg_7" d="m1516,387c-42,-135 -41,-125 -13,-120c16,3 28,14 31,29c5,19 13,24 40,24c27,0 35,-5 40,-24c4,-15 15,-25 31,-29c17,-3 25,0 22,7c-2,6 -17,55 -33,108c-28,95 -30,98 -59,98c-29,0 -31,-3 -59,-93zm78,-9c6,-25 4,-28 -19,-28c-29,0 -28,-3 -13,58c12,50 11,51 32,-30z"/>
   <path id="svg_8" d="m2590,450c0,-11 -4,-20 -10,-20c-5,0 -10,-9 -10,-20c0,-11 5,-20 10,-20c6,0 10,-22 10,-50c0,-42 4,-52 25,-66c29,-19 59,-15 63,9c2,11 -3,17 -16,17c-16,0 -21,8 -24,45c-3,41 -1,45 19,45c16,0 23,6 23,20c0,14 -7,20 -24,20c-19,0 -23,4 -19,20c4,16 0,20 -21,20c-19,0 -26,-5 -26,-20zm30,-40c0,-5 -5,-10 -11,-10c-5,0 -7,5 -4,10c3,6 8,10 11,10c2,0 4,-4 4,-10z"/>
   <path id="svg_9" d="m1700,416c-21,-26 -8,-60 33,-79c37,-19 41,-37 8,-37c-9,0 -22,5 -28,11c-8,8 -14,6 -22,-9c-10,-18 -7,-22 24,-32c49,-16 90,4 90,45c0,25 -7,33 -38,48c-40,18 -41,43 -2,33c28,-7 55,18 29,28c-29,11 -81,6 -94,-8z"/>
   <path id="svg_10" d="m1852,418c-24,-24 -14,-58 23,-79c45,-27 44,-41 -2,-37c-28,2 -38,-1 -38,-11c0,-23 51,-35 85,-21c53,22 51,66 -5,93c-44,21 -45,39 -2,35c23,-2 32,1 32,12c0,19 -75,26 -93,8z"/>
   <path id="svg_11" d="m2002,407c-23,-25 -29,-75 -12,-106c5,-10 23,-24 39,-31c63,-26 123,37 101,105c-19,59 -87,75 -128,32zm83,-41c11,-33 -3,-61 -31,-61c-14,0 -20,8 -22,33c-4,35 13,65 32,59c6,-2 15,-16 21,-31z"/>
   <path id="svg_12" d="m2185,405c-35,-34 -33,-78 4,-116c32,-32 57,-36 86,-16c23,17 11,40 -16,32c-27,-9 -49,12 -49,46c0,30 31,56 51,43c12,-7 31,15 23,28c-12,18 -75,8 -99,-17z"/>
   <path id="svg_13" d="m2320,350c0,-79 0,-80 25,-80c25,0 25,1 25,80c0,79 0,80 -25,80c-25,0 -25,-1 -25,-80z"/>
   <path id="svg_14" d="m2428,423c-14,-4 -16,-8 -8,-24c9,-16 15,-17 31,-8c22,11 49,6 49,-9c0,-5 -14,-12 -32,-16c-43,-8 -58,-23 -58,-57c0,-35 36,-57 66,-41c11,6 32,8 48,5l29,-6l-5,66c-2,35 -10,72 -17,81c-13,15 -63,20 -103,9zm72,-98c0,-21 -28,-31 -43,-16c-9,9 -8,14 3,21c22,14 40,12 40,-5z"/>
   <path id="svg_15" d="m2714,409c-24,-27 -25,-91 -1,-117c24,-26 59,-35 92,-22c34,13 27,36 -9,32c-26,-3 -56,12 -56,29c0,4 23,6 51,3l52,-5l-6,36c-3,20 -11,43 -18,51c-18,22 -83,18 -105,-7zm84,-29c2,-11 -6,-15 -28,-15c-16,0 -30,5 -30,12c0,25 53,28 58,3z"/>
   <path id="svg_16" d="m2880,416c-20,-25 -8,-60 28,-77c43,-22 41,-34 -5,-34c-45,0 -53,-18 -15,-34c54,-22 112,12 97,58c-3,9 -21,25 -40,34c-43,21 -47,42 -6,34c34,-7 64,16 35,27c-29,11 -81,6 -94,-8z"/>
  </g>
 </g>
</svg>