<?xml version="1.0" standalone="no"?>
<!DOCTYPE svg PUBLIC "-//W3C//DTD SVG 20010904//EN"
 "http://www.w3.org/TR/2001/REC-SVG-20010904/DTD/svg10.dtd">
<svg version="1.0" xmlns="http://www.w3.org/2000/svg"
 width="3369.000000pt" height="741.000000pt" viewBox="0 0 3369.000000 741.000000"
 preserveAspectRatio="xMidYMid meet">
<metadata>
Created by potrace 1.10, written by Peter Selinger 2001-2011
</metadata>
<g transform="translate(0.000000,741.000000) scale(0.100000,-0.100000)"
fill="#000000" stroke="none">
<path d="M1297 7256 c-53 -16 -102 -67 -117 -121 -14 -51 -8 -95 20 -148 25
-46 26 -83 3 -95 -10 -5 -52 -15 -93 -21 -41 -7 -111 -19 -155 -26 -44 -8
-120 -21 -170 -29 -49 -9 -128 -22 -175 -31 -47 -8 -98 -15 -113 -15 -33 0
-75 -20 -100 -48 -13 -14 -17 -32 -15 -63 3 -38 8 -47 45 -72 43 -28 43 -29
43 -88 0 -45 -7 -75 -31 -126 -17 -38 -39 -86 -49 -108 -10 -22 -37 -80 -59
-128 -23 -49 -41 -90 -41 -92 0 -2 -15 -37 -34 -77 -85 -182 -116 -249 -116
-253 0 -2 -18 -43 -41 -92 -103 -223 -103 -222 -88 -274 34 -116 114 -184 289
-245 46 -16 83 -19 215 -19 165 1 221 12 320 62 147 76 217 207 167 315 -11
24 -31 68 -45 98 -14 30 -39 87 -57 125 -17 39 -41 90 -52 115 -11 25 -33 72
-48 105 -15 33 -40 87 -55 120 -75 168 -103 229 -149 329 -33 69 -37 86 -34
145 l3 66 319 3 c249 2 321 -1 328 -10 4 -7 8 -218 8 -469 l0 -456 -22 -29
c-23 -28 -23 -35 -28 -369 -3 -187 -7 -341 -8 -341 -1 -1 -35 -12 -74 -24 -40
-12 -95 -29 -123 -37 -132 -41 -165 -77 -165 -178 0 -53 4 -71 18 -81 23 -18
1027 -20 1067 -2 23 10 25 16 25 81 0 106 -26 134 -167 178 -162 52 -188 62
-195 72 -4 7 -8 156 -8 331 l0 319 -25 43 -25 43 2 463 3 463 325 0 325 0 3
-65 c2 -43 -2 -75 -11 -95 -9 -16 -27 -57 -42 -90 -50 -113 -67 -150 -95 -210
-15 -33 -39 -85 -53 -115 -14 -30 -39 -86 -57 -125 -30 -67 -48 -106 -89 -197
-11 -24 -39 -83 -62 -133 -37 -77 -44 -99 -44 -155 0 -53 5 -71 25 -100 59
-85 117 -124 255 -173 52 -19 81 -22 220 -22 139 0 168 3 220 22 94 33 116 45
174 87 61 46 93 91 109 158 13 50 7 68 -87 273 -18 39 -41 88 -51 110 -24 54
-61 135 -100 220 -17 39 -41 90 -52 115 -11 25 -33 72 -48 105 -15 33 -40 87
-55 120 -15 33 -35 77 -46 98 -13 25 -19 58 -19 102 l0 64 43 28 c38 26 42 33
45 75 3 40 0 48 -28 71 -17 15 -47 29 -68 32 -63 9 -216 33 -502 80 -47 8
-114 19 -148 24 -35 6 -70 15 -78 22 -20 16 -17 53 6 96 59 111 17 227 -99
268 -50 17 -62 17 -114 1z m102 -90 c30 -16 51 -53 51 -91 0 -36 -55 -85 -95
-85 -72 0 -121 93 -77 146 35 44 74 54 121 30z m-4 -901 l0 -630 -40 0 -40 0
-3 620 c-1 341 0 626 3 633 3 9 18 12 42 10 l38 -3 0 -630z m-175 466 c0 -25
-4 -52 -8 -59 -7 -9 -88 -12 -373 -10 -313 3 -356 5 -309 15 93 21 151 32 255
48 55 9 134 23 175 30 195 36 235 41 248 32 6 -5 12 -30 12 -56z m359 49 c31
-5 101 -17 156 -25 55 -9 133 -23 173 -31 40 -8 87 -14 105 -14 18 -1 73 -12
122 -25 l90 -24 -365 2 -365 2 -3 49 c-5 81 -4 82 87 66z m-1038 -518 c17 -37
56 -123 89 -197 10 -22 30 -66 44 -97 33 -73 63 -140 115 -251 23 -49 41 -90
41 -92 0 -2 16 -38 36 -79 19 -42 33 -80 29 -86 -7 -12 -761 -14 -768 -2 -3 4
7 32 22 63 14 31 39 85 55 120 16 35 41 91 56 124 15 33 37 80 48 105 11 25
34 74 50 110 17 36 41 90 55 121 63 143 92 199 101 199 6 0 18 -17 27 -38z
m1689 -14 c12 -29 38 -87 57 -128 33 -71 45 -99 92 -202 11 -24 38 -83 60
-131 23 -49 41 -90 41 -92 0 -2 20 -46 45 -99 24 -52 47 -106 51 -120 l6 -26
-386 0 c-291 0 -386 3 -386 12 0 6 9 31 20 55 11 24 29 62 39 86 11 23 38 82
60 130 23 49 41 90 41 92 0 2 18 43 41 92 22 48 49 106 59 128 60 134 83 184
98 217 9 21 22 38 28 38 6 0 22 -24 34 -52z m-785 -1023 l0 -310 -92 -3 -93
-3 0 316 0 316 93 -3 92 -3 0 -310z m-530 125 c9 -15 -28 -62 -73 -94 -161
-111 -475 -117 -640 -12 -54 34 -96 82 -89 100 6 14 53 16 401 16 254 0 397
-4 401 -10z m1681 -1 c17 -28 -95 -121 -178 -148 -138 -45 -320 -43 -450 6
-99 36 -192 113 -173 143 9 15 792 13 801 -1z m-1064 -543 c18 -7 60 -21 93
-31 171 -50 198 -63 193 -99 -3 -21 -8 -21 -457 -24 -273 -1 -459 2 -464 7 -5
5 -7 21 -3 34 5 20 19 29 78 48 40 12 109 35 153 49 72 25 95 28 227 29 105 1
157 -3 180 -13z"/>
<path d="M10502 6687 c-37 -14 -72 -60 -72 -95 0 -37 32 -82 72 -103 47 -24
59 -24 108 1 48 24 60 45 60 103 0 48 -22 77 -73 96 -35 13 -53 13 -95 -2z"/>
<path d="M5687 6595 c-55 -21 -94 -51 -125 -99 -25 -38 -27 -49 -27 -142 0
-78 4 -107 18 -127 28 -43 21 -65 -39 -119 -80 -74 -98 -114 -98 -218 0 -96
17 -139 75 -191 56 -50 103 -68 192 -75 109 -8 193 7 279 51 l71 37 51 -25
c101 -48 127 -57 161 -57 30 0 35 4 41 28 3 15 12 46 20 69 18 50 15 56 -28
73 -86 32 -108 44 -108 60 0 9 5 21 11 27 23 23 109 195 109 218 0 7 5 17 10
20 6 3 10 15 10 26 0 17 -8 19 -88 19 -92 0 -112 -8 -113 -44 0 -12 -11 -41
-24 -66 -13 -25 -28 -55 -34 -67 -21 -45 -45 -46 -98 -4 -26 21 -68 59 -92 86
l-44 48 29 20 c99 71 174 179 174 253 0 84 -62 172 -138 199 -56 18 -144 18
-195 0z m159 -157 c22 -42 7 -92 -43 -141 -52 -53 -77 -50 -98 13 -13 40 -15
57 -6 82 18 52 49 78 92 78 33 0 41 -5 55 -32z m-25 -568 l53 -48 -34 -21
c-24 -14 -52 -21 -89 -21 -71 0 -114 27 -136 83 -19 49 -12 75 31 126 l28 33
47 -51 c26 -29 71 -74 100 -101z"/>
<path d="M3307 6583 c-4 -3 -7 -214 -7 -468 0 -345 3 -464 12 -473 7 -7 42
-12 88 -12 46 0 81 5 88 12 16 16 16 316 0 446 -15 121 -16 182 -3 182 5 1 13
-12 16 -27 3 -15 10 -37 16 -48 6 -11 20 -49 31 -85 12 -36 30 -90 42 -120 12
-30 25 -66 30 -80 5 -14 18 -50 30 -80 12 -30 25 -66 29 -80 6 -22 14 -25 60
-28 60 -4 76 6 90 52 5 17 23 67 40 111 16 44 35 96 42 115 6 19 15 42 19 50
4 8 19 54 35 103 15 48 31 87 35 87 5 0 13 12 19 28 8 21 9 12 3 -38 -4 -36
-7 -184 -7 -330 l0 -265 81 -3 c60 -2 84 1 93 11 8 11 11 137 9 478 l-3 464
-109 3 c-65 2 -113 -1 -119 -7 -6 -6 -23 -48 -39 -93 -16 -46 -40 -114 -53
-153 -13 -38 -34 -95 -46 -125 -11 -30 -24 -68 -28 -85 -18 -74 -36 -125 -46
-125 -5 0 -27 53 -49 118 -21 64 -47 140 -58 167 -11 28 -23 64 -28 80 -5 17
-18 55 -30 85 -12 30 -25 68 -30 83 -17 54 -24 57 -140 57 -58 0 -110 -3 -113
-7z"/>
<path d="M4757 6584 c-4 -4 -7 -148 -7 -320 0 -332 -7 -398 -43 -431 -49 -45
-124 -40 -181 13 -20 19 -42 34 -48 34 -22 0 -118 -83 -118 -101 0 -28 62 -91
122 -124 49 -28 60 -30 163 -30 121 0 162 14 223 74 82 83 94 157 90 566 l-3
320 -95 3 c-53 1 -99 0 -103 -4z"/>
<path d="M6936 6545 c-21 -60 -40 -118 -61 -190 -10 -33 -23 -76 -30 -95 -7
-19 -20 -60 -29 -90 -8 -30 -29 -98 -46 -150 -17 -52 -38 -120 -46 -150 -9
-30 -22 -71 -29 -90 -36 -102 -44 -133 -39 -141 8 -14 190 -11 202 4 5 6 15
32 22 57 36 136 42 151 67 161 13 5 75 9 138 9 129 0 138 -4 155 -73 6 -23 19
-69 29 -102 l17 -60 105 0 104 0 -3 30 c-2 17 -17 71 -33 120 -16 50 -36 115
-45 145 -9 30 -22 71 -29 90 -7 19 -20 60 -29 90 -8 30 -29 98 -46 150 -17 52
-38 120 -46 150 -9 30 -22 71 -30 90 -7 19 -15 47 -18 63 l-6 27 -129 0 -129
0 -16 -45z m159 -172 c21 -99 39 -173 51 -208 7 -22 15 -60 16 -85 l3 -45 -92
-3 -93 -3 0 35 c0 20 6 53 14 73 7 21 21 72 30 113 29 130 36 150 51 150 8 0
17 -12 20 -27z"/>
<path d="M11682 6548 c-5 -7 -14 -49 -19 -93 l-8 -80 -45 -13 c-25 -8 -51 -15
-58 -18 -9 -3 -12 -23 -10 -71 l3 -68 45 -5 45 -5 6 -190 c3 -104 11 -207 17
-228 13 -49 52 -99 99 -129 34 -21 49 -23 151 -23 145 1 151 6 125 96 l-19 64
-42 -3 c-56 -5 -97 20 -111 68 -6 21 -11 105 -11 188 0 174 -10 160 110 164
l65 3 3 65 c3 88 -3 95 -77 92 -93 -5 -100 2 -103 106 l-3 87 -76 3 c-53 2
-79 -1 -87 -10z"/>
<path d="M7743 6358 c-72 -28 -118 -76 -139 -143 -41 -130 28 -214 246 -301
84 -33 107 -70 69 -110 -19 -21 -32 -24 -87 -24 -53 0 -75 6 -123 31 -33 18
-61 30 -62 28 -49 -62 -77 -106 -77 -120 0 -13 23 -29 78 -56 75 -36 80 -37
192 -37 96 0 121 4 150 20 110 62 133 97 134 205 1 73 0 77 -35 120 -40 48
-75 68 -219 125 -58 23 -80 42 -80 69 0 27 25 51 63 60 30 8 122 -18 148 -41
22 -20 38 -11 81 45 50 65 43 74 -95 135 -54 23 -177 21 -244 -6z"/>
<path d="M8383 6350 c-71 -36 -105 -75 -123 -146 -32 -126 36 -205 250 -290
45 -18 90 -57 90 -79 0 -6 -10 -21 -23 -33 -19 -18 -35 -22 -86 -22 -52 0 -74
6 -122 31 -33 18 -61 30 -62 28 -49 -62 -77 -106 -77 -120 0 -13 23 -29 78
-56 75 -36 80 -37 192 -37 120 0 146 7 211 59 56 45 74 84 74 166 0 73 -2 78
-37 120 -39 48 -74 68 -218 125 -58 23 -80 42 -80 69 0 27 25 51 63 60 30 8
122 -18 148 -41 9 -8 22 -12 30 -8 19 8 79 91 79 110 0 15 -50 49 -110 73 -19
8 -75 16 -125 18 -83 2 -95 0 -152 -27z"/>
<path d="M9125 6359 c-97 -40 -156 -97 -201 -198 -21 -46 -24 -69 -24 -165 0
-79 4 -119 15 -140 8 -15 15 -33 15 -38 0 -13 56 -86 89 -116 14 -13 49 -36
76 -50 44 -23 62 -26 150 -26 85 -1 107 2 147 22 75 37 133 96 169 170 31 63
32 73 32 182 1 110 -1 118 -32 179 -46 93 -108 148 -206 183 -66 24 -166 23
-230 -3z m198 -177 c42 -37 57 -87 57 -182 0 -71 -4 -99 -20 -129 -26 -53 -65
-81 -109 -81 -89 0 -141 78 -141 210 0 109 37 188 95 203 33 9 98 -3 118 -21z"/>
<path d="M9970 6362 c-161 -58 -254 -192 -253 -367 1 -152 66 -271 185 -336
61 -33 66 -34 173 -33 98 0 115 3 161 26 78 41 81 49 45 103 -17 25 -31 50
-31 56 0 20 -29 20 -69 0 -109 -56 -213 0 -242 132 -25 114 28 235 113 258 45
12 99 5 132 -17 21 -13 24 -11 57 34 60 80 62 86 31 109 -74 53 -208 69 -302
35z"/>
<path d="M11020 6363 c-68 -24 -148 -62 -156 -74 -8 -13 44 -119 62 -126 7 -2
34 5 61 17 56 25 127 35 176 26 26 -5 42 -16 57 -42 30 -47 17 -59 -73 -74
-183 -30 -274 -86 -311 -191 -31 -86 -2 -179 76 -240 40 -33 46 -34 128 -34
81 0 88 2 147 38 66 41 83 41 83 2 0 -30 23 -37 110 -33 l65 3 0 255 c0 217
-3 263 -18 311 -24 73 -64 121 -132 153 -47 22 -68 26 -143 25 -51 0 -106 -7
-132 -16z m217 -453 c2 -41 -2 -60 -15 -75 -51 -59 -131 -74 -171 -31 -63 67
37 170 159 163 23 -2 25 -6 27 -57z"/>
<path d="M12343 6362 c-144 -59 -233 -198 -233 -367 0 -115 43 -219 117 -285
80 -70 121 -84 253 -83 102 0 121 3 170 25 81 37 87 48 56 97 -14 22 -26 45
-26 51 0 15 -51 12 -80 -5 -38 -22 -143 -19 -190 5 -59 30 -117 128 -77 131 6
0 98 0 204 0 161 -1 194 1 207 15 31 31 14 209 -28 291 -23 43 -85 97 -141
122 -60 26 -171 28 -232 3z m178 -158 c32 -16 76 -95 64 -114 -4 -6 -61 -10
-136 -10 -127 0 -129 0 -129 23 0 32 34 78 72 99 41 22 90 23 129 2z"/>
<path d="M13041 6358 c-67 -27 -111 -72 -134 -135 -22 -60 -21 -88 2 -138 30
-68 90 -110 241 -171 78 -31 98 -59 74 -106 -14 -27 -18 -28 -85 -28 -68 0
-137 22 -154 50 -3 5 -13 10 -20 10 -17 0 -95 -100 -95 -122 0 -9 31 -31 78
-54 76 -38 79 -38 192 -38 93 0 122 3 150 18 54 29 82 54 112 99 23 35 28 53
28 108 0 57 -4 71 -30 107 -32 45 -78 77 -150 106 -145 59 -164 73 -152 119 7
26 59 50 96 44 33 -6 90 -29 118 -50 15 -10 20 -8 32 8 7 11 28 36 44 55 27
31 29 37 18 54 -7 11 -39 33 -72 50 -51 27 -71 31 -149 33 -73 2 -100 -1 -144
-19z"/>
<path d="M10463 6352 c-10 -11 -13 -87 -13 -362 0 -308 2 -349 16 -354 9 -3
49 -6 89 -6 40 0 80 3 89 6 14 5 16 47 16 359 0 238 -3 356 -11 360 -21 13
-172 11 -186 -3z"/>
</g>
</svg>
